<?xml version="1.0" encoding="UTF-8"?>
<svg xmlns="http://www.w3.org/2000/svg" xmlns:xlink="http://www.w3.org/1999/xlink" width="150px" height="150px" viewBox="0 0 150 150" version="1.1">
<g id="surface1">
<path style=" stroke:none;fill-rule:nonzero;fill:rgb(100%,100%,100%);fill-opacity:1;" d="M 102.941406 59.707031 C 104.734375 61.347656 107.484375 61.347656 109.277344 59.707031 L 129.730469 40.957031 C 131.636719 39.207031 131.765625 36.242188 130.019531 34.332031 C 128.269531 32.425781 125.304688 32.296875 123.394531 34.042969 L 106.109375 49.890625 L 101.605469 45.761719 C 99.695312 44.015625 96.730469 44.144531 94.980469 46.050781 C 93.234375 47.960938 93.363281 50.925781 95.269531 52.675781 Z M 102.941406 59.707031 "/>
<path style=" stroke:none;fill-rule:evenodd;fill:rgb(100%,100%,100%);fill-opacity:1;" d="M 121.574219 12.886719 C 116.183594 8.203125 108.167969 8.203125 102.777344 12.886719 C 101.765625 13.765625 100.4375 14.199219 99.101562 14.082031 C 91.988281 13.460938 85.503906 18.171875 83.894531 25.128906 C 83.613281 26.355469 82.871094 27.425781 81.832031 28.125 L 18.75 28.125 C 10.984375 28.125 4.6875 34.421875 4.6875 42.1875 L 4.6875 112.5 C 2.097656 112.5 0 114.597656 0 117.1875 L 0 126.5625 C 0 134.328125 6.296875 140.625 14.0625 140.625 L 135.9375 140.625 C 143.703125 140.625 150 134.328125 150 126.5625 L 150 117.1875 C 150 114.597656 147.902344 112.5 145.3125 112.5 L 145.3125 65.890625 C 149.492188 61.851562 150.890625 55.550781 148.539062 50 C 148.011719 48.765625 148.011719 47.367188 148.539062 46.132812 C 151.324219 39.558594 148.847656 31.9375 142.730469 28.257812 C 141.578125 27.566406 140.757812 26.4375 140.457031 25.128906 C 138.847656 18.171875 132.363281 13.460938 125.25 14.082031 C 123.914062 14.199219 122.585938 13.765625 121.574219 12.886719 Z M 135.9375 78.554688 C 133.085938 81.050781 129.269531 82.402344 125.25 82.050781 C 123.914062 81.933594 122.585938 82.363281 121.574219 83.246094 C 116.183594 87.925781 108.167969 87.925781 102.777344 83.246094 C 101.765625 82.363281 100.4375 81.933594 99.101562 82.050781 C 91.988281 82.671875 85.503906 77.960938 83.894531 71.003906 C 83.59375 69.695312 82.773438 68.566406 81.621094 67.875 C 75.503906 64.195312 73.027344 56.574219 75.816406 50 C 76.339844 48.765625 76.339844 47.367188 75.816406 46.132812 C 74.621094 43.316406 74.390625 40.308594 75.003906 37.5 L 18.75 37.5 C 16.160156 37.5 14.0625 39.597656 14.0625 42.1875 L 14.0625 112.5 L 135.9375 112.5 Z M 108.925781 19.964844 C 110.789062 18.34375 113.5625 18.34375 115.425781 19.964844 C 118.355469 22.511719 122.195312 23.757812 126.066406 23.421875 C 128.523438 23.207031 130.765625 24.835938 131.320312 27.242188 C 132.195312 31.023438 134.570312 34.292969 137.898438 36.292969 C 140.015625 37.5625 140.871094 40.199219 139.90625 42.472656 C 138.390625 46.046875 138.390625 50.085938 139.90625 53.660156 C 140.871094 55.933594 140.015625 58.566406 137.898438 59.839844 C 134.570312 61.839844 132.195312 65.109375 131.320312 68.890625 C 130.765625 71.296875 128.523438 72.925781 126.066406 72.710938 C 122.195312 72.375 118.355469 73.621094 115.425781 76.167969 C 113.5625 77.785156 110.789062 77.785156 108.925781 76.167969 C 105.996094 73.621094 102.15625 72.375 98.285156 72.710938 C 95.828125 72.925781 93.585938 71.296875 93.03125 68.890625 C 92.15625 65.109375 89.78125 61.839844 86.453125 59.839844 C 84.339844 58.566406 83.480469 55.933594 84.445312 53.660156 C 85.960938 50.085938 85.960938 46.046875 84.445312 42.472656 C 83.480469 40.199219 84.339844 37.5625 86.453125 36.292969 C 89.78125 34.292969 92.15625 31.023438 93.03125 27.242188 C 93.585938 24.835938 95.828125 23.207031 98.285156 23.421875 C 102.15625 23.757812 105.996094 22.511719 108.925781 19.964844 Z M 101.871094 121.875 L 140.625 121.875 L 140.625 126.5625 C 140.625 129.152344 138.527344 131.25 135.9375 131.25 L 14.0625 131.25 C 11.472656 131.25 9.375 129.152344 9.375 126.5625 L 9.375 121.875 L 48.128906 121.875 C 49.75 124.675781 52.78125 126.5625 56.25 126.5625 L 93.75 126.5625 C 97.21875 126.5625 100.25 124.675781 101.871094 121.875 Z M 101.871094 121.875 "/>
</g>
</svg>
